<svg xmlns="http://www.w3.org/2000/svg" width="198.13" height="197.58" xmlns:xlink="http://www.w3.org/1999/xlink" overflow="visible"><defs><linearGradient id="a" x1="174.07" x2="132.28" y1="215.55" y2="141.75" gradientUnits="userSpaceOnUse"><stop offset="0" stop-color="#FB7655"/><stop offset="0" stop-color="#FB7655"/><stop offset=".41" stop-color="#E42B1E"/><stop offset=".99" stop-color="#900"/><stop offset="1" stop-color="#900"/></linearGradient><linearGradient id="c" x1="194.9" x2="141.03" y1="153.56" y2="117.41" gradientUnits="userSpaceOnUse"><stop offset="0" stop-color="#871101"/><stop offset="0" stop-color="#871101"/><stop offset=".99" stop-color="#911209"/><stop offset="1" stop-color="#911209"/></linearGradient><linearGradient id="d" x1="151.8" x2="97.93" y1="217.79" y2="181.64" gradientUnits="userSpaceOnUse"><stop offset="0" stop-color="#871101"/><stop offset="0" stop-color="#871101"/><stop offset=".99" stop-color="#911209"/><stop offset="1" stop-color="#911209"/></linearGradient><linearGradient id="e" x1="38.7" x2="47.05" y1="127.39" y2="181.66" gradientUnits="userSpaceOnUse"><stop offset="0" stop-color="#FFF"/><stop offset="0" stop-color="#FFF"/><stop offset=".23" stop-color="#E57252"/><stop offset=".46" stop-color="#DE3B20"/><stop offset=".99" stop-color="#A60003"/><stop offset="1" stop-color="#A60003"/></linearGradient><linearGradient id="f" x1="96.13" x2="99.21" y1="76.72" y2="132.1" gradientUnits="userSpaceOnUse"><stop offset="0" stop-color="#FFF"/><stop offset="0" stop-color="#FFF"/><stop offset=".23" stop-color="#E4714E"/><stop offset=".56" stop-color="#BE1A0D"/><stop offset=".99" stop-color="#A80D00"/><stop offset="1" stop-color="#A80D00"/></linearGradient><linearGradient id="g" x1="147.1" x2="156.31" y1="25.52" y2="65.22" gradientUnits="userSpaceOnUse"><stop offset="0" stop-color="#FFF"/><stop offset="0" stop-color="#FFF"/><stop offset=".18" stop-color="#E46342"/><stop offset=".4" stop-color="#C82410"/><stop offset=".99" stop-color="#A80D00"/><stop offset="1" stop-color="#A80D00"/></linearGradient><linearGradient id="h" x1="118.98" x2="158.67" y1="11.54" y2="-8.3" gradientUnits="userSpaceOnUse"><stop offset="0" stop-color="#FFF"/><stop offset="0" stop-color="#FFF"/><stop offset=".54" stop-color="#C81F11"/><stop offset=".99" stop-color="#BF0905"/><stop offset="1" stop-color="#BF0905"/></linearGradient><linearGradient id="i" x1="3.9" x2="7.17" y1="113.55" y2="146.26" gradientUnits="userSpaceOnUse"><stop offset="0" stop-color="#FFF"/><stop offset="0" stop-color="#FFF"/><stop offset=".31" stop-color="#DE4024"/><stop offset=".99" stop-color="#BF190B"/><stop offset="1" stop-color="#BF190B"/></linearGradient><linearGradient id="j" x1="-18.56" x2="135.02" y1="155.1" y2="-2.81" gradientUnits="userSpaceOnUse"><stop offset="0" stop-color="#BD0012"/><stop offset="0" stop-color="#BD0012"/><stop offset=".07" stop-color="#FFF"/><stop offset=".17" stop-color="#FFF"/><stop offset=".27" stop-color="#C82F1C"/><stop offset=".33" stop-color="#820C01"/><stop offset=".46" stop-color="#A31601"/><stop offset=".72" stop-color="#B31301"/><stop offset=".99" stop-color="#E82609"/><stop offset="1" stop-color="#E82609"/></linearGradient><linearGradient id="k" x1="99.07" x2="52.82" y1="171.03" y2="159.62" gradientUnits="userSpaceOnUse"><stop offset="0" stop-color="#8C0C01"/><stop offset="0" stop-color="#8C0C01"/><stop offset=".54" stop-color="#990C00"/><stop offset=".99" stop-color="#A80D0E"/><stop offset="1" stop-color="#A80D0E"/></linearGradient><linearGradient id="l" x1="178.53" x2="137.43" y1="115.51" y2="78.68" gradientUnits="userSpaceOnUse"><stop offset="0" stop-color="#7E110B"/><stop offset="0" stop-color="#7E110B"/><stop offset=".99" stop-color="#9E0C00"/><stop offset="1" stop-color="#9E0C00"/></linearGradient><linearGradient id="m" x1="193.62" x2="173.15" y1="47.94" y2="26.05" gradientUnits="userSpaceOnUse"><stop offset="0" stop-color="#79130D"/><stop offset="0" stop-color="#79130D"/><stop offset=".99" stop-color="#9E120B"/><stop offset="1" stop-color="#9E120B"/></linearGradient><radialGradient id="n" cx="143.83" cy="79.39" r="50.36" gradientUnits="userSpaceOnUse"><stop offset="0" stop-color="#A80D00"/><stop offset="0" stop-color="#A80D00"/><stop offset=".99" stop-color="#7E0E08"/><stop offset="1" stop-color="#7E0E08"/></radialGradient><radialGradient id="o" cx="74.09" cy="145.75" r="66.94" gradientUnits="userSpaceOnUse"><stop offset="0" stop-color="#A30C00"/><stop offset="0" stop-color="#A30C00"/><stop offset=".99" stop-color="#800E08"/><stop offset="1" stop-color="#800E08"/></radialGradient><linearGradient id="p" x1="26.67" x2="9.99" y1="197.34" y2="140.74" gradientUnits="userSpaceOnUse"><stop offset="0" stop-color="#8B2114"/><stop offset="0" stop-color="#8B2114"/><stop offset=".43" stop-color="#9E100A"/><stop offset=".99" stop-color="#B3100C"/><stop offset="1" stop-color="#B3100C"/></linearGradient><linearGradient id="q" x1="154.64" x2="192.04" y1="9.8" y2="26.31" gradientUnits="userSpaceOnUse"><stop offset="0" stop-color="#B31000"/><stop offset="0" stop-color="#B31000"/><stop offset=".44" stop-color="#910F08"/><stop offset=".99" stop-color="#791C12"/><stop offset="1" stop-color="#791C12"/></linearGradient><linearGradient id="b" x1="174.07" x2="132.28" y1="215.55" y2="141.75" gradientUnits="userSpaceOnUse" xlink:href="#a"/></defs><path fill="url(#b)" fill-rule="evenodd" d="M153.5 130.4L40.38 197.6l146.47-9.94 11.28-147.7" clip-rule="evenodd"/><path fill="url(#c)" fill-rule="evenodd" d="M187.1 187.54l-12.6-86.9-34.3 45.3" clip-rule="evenodd"/><path fill="url(#d)" fill-rule="evenodd" d="M187.26 187.54l-92.23-7.24-54.16 17.1" clip-rule="evenodd"/><path fill="url(#e)" fill-rule="evenodd" d="M41 197.4l23.04-75.47-50.7 10.84" clip-rule="evenodd"/><path fill="url(#f)" fill-rule="evenodd" d="M140.2 146.18L119 63.14 58.33 120" clip-rule="evenodd"/><path fill="url(#g)" fill-rule="evenodd" d="M193.32 64.3l-57.35-46.83L120 69.1" clip-rule="evenodd"/><path fill="url(#h)" fill-rule="evenodd" d="M166.5.77L132.77 19.4 111.5.53" clip-rule="evenodd"/><path fill="url(#i)" fill-rule="evenodd" d="M0 158.1l14.13-25.78-11.43-30.7" clip-rule="evenodd"/><path fill="#fff" fill-rule="evenodd" d="M1.94 100.65l11.5 32.62 49.97-11.2 57.06-53.03 16.1-51.14L111.2 0 68.1 16.13C54.54 28.76 28.2 53.75 27.24 54.23c-.94.47-17.4 31.58-25.3 46.42z" clip-rule="evenodd"/><path fill="url(#j)" fill-rule="evenodd" d="M42.32 42.05c29.43-29.18 67.37-46.42 81.93-31.73 14.55 14.7-.88 50.4-30.3 79.56-29.44 29.17-66.9 47.36-81.46 32.67-14.57-14.68.4-51.33 29.82-80.5z" clip-rule="evenodd"/><path fill="url(#k)" fill-rule="evenodd" d="M41 197.38l22.86-75.72 75.92 24.4c-27.45 25.73-57.98 47.5-98.78 51.32z" clip-rule="evenodd"/><path fill="url(#l)" fill-rule="evenodd" d="M120.56 68.9l19.5 77.2c22.92-24.12 43.5-50.04 53.58-82.1l-73.08 4.9z" clip-rule="evenodd"/><path fill="url(#m)" fill-rule="evenodd" d="M193.44 64.4c7.8-23.55 9.6-57.32-27.18-63.6L136.08 17.5l57.36 46.9z" clip-rule="evenodd"/><path fill="#9e1209" fill-rule="evenodd" d="M0 157.75c1.08 38.85 29.1 39.43 41.05 39.77l-27.58-64.4L0 157.74z" clip-rule="evenodd"/><path fill="url(#n)" fill-rule="evenodd" d="M120.67 69c17.62 10.84 53.13 32.6 53.85 33 1.12.62 15.3-23.94 18.53-37.82L120.67 69z" clip-rule="evenodd"/><path fill="url(#o)" fill-rule="evenodd" d="M63.83 121.66l30.56 58.96c18.06-9.8 32.2-21.74 45.17-34.53l-75.74-24.44z" clip-rule="evenodd"/><path fill="url(#p)" fill-rule="evenodd" d="M13.35 133.2l-4.33 51.55c8.17 11.16 19.4 12.13 31.2 11.26-8.53-21.22-25.57-63.67-26.87-62.8z" clip-rule="evenodd"/><path fill="url(#q)" fill-rule="evenodd" d="M135.9 17.6l60.7 8.53C193.38 12.4 183.43 3.53 166.47.77L135.9 17.6z" clip-rule="evenodd"/></svg>
