<svg id="Laag_1" xmlns="http://www.w3.org/2000/svg" viewBox="0 0 100 100">
  <style> .st1{fill:#25346C;} .st2{fill:#FFFFFF;} .st3{fill:#CF172C;}</style>
  <path class="st1" d="M4.9 31.2c-.6 1.3-1.1 2.7-1.5 4.1h7.7l-6.2-4.1zM95.1 68.8c.6-1.4 1.1-2.8 1.5-4.2h-7.8l6.3 4.2zM15.3 84.4c5.5 5.6 12.4 9.8 20 12.2V71.1l-20 13.3zM35.3 3.4c-7.7 2.4-14.5 6.7-20.1 12.3L35.3 29V3.4zM96.6 35.3c-.4-1.4-.9-2.8-1.5-4.1l-6.2 4.1h7.7zM64.7 96.6c7.7-2.4 14.5-6.6 20-12.2l-20-13.3v25.5zM3.4 64.7c.4 1.4 1 2.8 1.5 4.2l6.3-4.2H3.4zM84.7 15.6C79.2 10 72.3 5.8 64.6 3.3V29l20.1-13.4z"/>
  <path class="st2" d="M98.1 58.5H58.5V98c2.1-.4 4.1-.9 6.1-1.5V71.1l20 13.3c2.3-2.3 4.3-4.8 6.1-7.5L72.3 64.7h11.6L94 71.4c.4-.8.8-1.7 1.1-2.5l-6.3-4.2h7.8c.6-2 1.1-4.1 1.5-6.2zM35.3 3.4V29l-20-13.4c-2.2 2.2-4.2 4.7-5.9 7.3L28 35.3H16.4L6.1 28.5c-.4.9-.9 1.8-1.2 2.7l6.2 4.1H3.4c-.6 2-1.1 4-1.5 6.1h39.5V1.9c-2 .4-4.1.9-6.1 1.5zM1.9 58.5c.4 2.1.9 4.1 1.5 6.1h7.8l-6.3 4.2c1.2 2.9 2.7 5.6 4.3 8.1l18.5-12.3h7.6v2.7L13.2 82.1c.7.8 1.4 1.6 2.2 2.4l20-13.3v25.5c2 .6 4 1.1 6.1 1.5V58.5H1.9zM96.6 35.3h-7.7l6.2-4.1c-1.2-2.9-2.7-5.7-4.5-8.4L71.9 35.3h-7.2v-2.9l22-14.7c-.6-.7-1.3-1.4-2-2.1L64.7 29V3.4c-2-.6-4-1.1-6.1-1.5v39.5h39.5c-.4-2-.9-4.1-1.5-6.1z"/>
  <path class="st3" d="M98.1 41.5H58.5V1.9c-2.8-.5-5.6-.8-8.5-.8-2.9 0-5.8.3-8.5.8v39.5H1.9c-.5 2.8-.8 5.6-.8 8.5 0 2.9.3 5.8.8 8.5h39.5v39.5c2.8.5 5.6.8 8.5.8 2.9 0 5.8-.3 8.5-.8V58.5h39.5c.5-2.8.8-5.6.8-8.5.2-2.9-.1-5.8-.6-8.5z"/>
  <path class="st3" d="M72.3 64.7L90.8 77c1.2-1.8 2.3-3.7 3.2-5.6l-10.1-6.7H72.3zM64.7 35.3h7.2l18.8-12.5c-1.2-1.8-2.5-3.5-3.9-5.1l-22 14.7v2.9zM35.3 64.7h-7.6L9.3 76.9c1.2 1.8 2.5 3.5 3.9 5.1l22.2-14.8v-2.5zM28 35.3L9.4 22.9c-1.2 1.8-2.3 3.6-3.2 5.6l10.3 6.9H28z"/>
  <circle cx="50" cy="50" r="48" stroke="white" stroke-width="2" fill="none"/>
</svg>
