<svg xmlns="http://www.w3.org/2000/svg" viewBox="0 0 999.937 999.937"><path d="M0 499.968c0-138.012 48.825-255.843 146.476-353.493C244.126 48.825 361.956 0 499.97 0 637.98 0 755.81 48.825 853.46 146.475c97.65 97.65 146.475 215.48 146.475 353.493S951.112 755.81 853.462 853.46c-97.65 97.65-215.48 146.477-353.493 146.477-138.014 0-255.845-48.825-353.494-146.476C48.826 755.813 0 637.98 0 499.97zm54.684 0c0 122.39 43.617 227.2 130.85 314.434 87.235 87.233 192.046 130.85 314.435 130.85 122.387 0 227.198-43.616 314.432-130.85 87.234-87.234 130.85-192.045 130.85-314.434 0-122.388-43.615-227.2-130.85-314.433C727.168 98.3 622.356 54.685 499.97 54.685c-122.39 0-227.2 43.616-314.435 130.85C98.3 272.77 54.685 377.58 54.685 499.968zM195.3 607.383c-2.603-2.604-2.603-5.208 0-7.812 5.208-5.207 11.72-7.16 19.53-5.858 7.812 1.302 12.37 2.604 13.67 3.906 9.115 3.906 19.206 12.694 30.272 26.366 11.066 13.67 19.855 23.11 26.366 28.318 31.248 26.04 63.146 27.993 95.696 5.86 2.604-9.115 6.836-16.927 12.694-23.438 5.858-6.51 11.393-11.066 16.6-13.67 5.21-2.605 14.324-6.51 27.344-11.72-42.967-3.905-77.795-11.392-104.486-22.46s-47.85-25.062-63.473-41.988c-20.832-23.436-33.527-54.033-38.084-91.79-4.56-37.76-1.63-72.262 8.788-103.51 7.812-19.53 18.88-37.106 33.2-52.73-10.416-32.55-8.463-69.658 5.86-111.322 41.663 2.604 79.42 16.926 113.273 42.966 65.1-16.926 132.805-17.577 203.112-1.953 9.114-6.51 23.11-14.647 41.99-24.413 18.878-9.765 42.64-15.3 71.284-16.6 5.208 14.32 8.79 31.247 10.742 50.777s.977 37.76-2.93 54.685c29.946 31.248 45.57 72.912 46.872 124.992 0 41.664-7.16 76.167-21.482 103.51s-39.71 50.126-76.167 68.353c-24.737 11.72-57.287 18.88-97.65 21.483 18.23 9.114 31.575 18.554 40.038 28.32 8.464 9.764 13.997 25.062 16.602 45.894v61.52l1.952 59.567c3.906 6.51 8.464 12.044 13.672 16.602 5.208 4.557 9.765 7.812 13.67 9.765 3.906 1.954 5.21 4.884 3.906 8.79-1.302 3.906-6.51 5.86-15.623 5.86-22.135 0-39.71-7.813-52.73-23.438-3.907-6.51-5.86-14.32-5.86-23.436v-93.744c0-10.416-2.604-17.903-7.812-22.46-5.208-4.558-10.416-7.487-15.624-8.79v123.04c0 22.134 2.605 36.456 7.813 42.966s8.463 13.02 9.766 19.53c1.3 1.302.324 2.278-2.93 2.93-3.255.65-8.79-.326-16.602-2.93-16.926-3.906-28.644-12.695-35.154-26.366-6.51-13.67-9.765-28.32-9.765-43.943V667.925h-25.39v121.086c0 15.624-3.256 30.598-9.766 44.92-9.113 18.228-26.04 27.992-50.777 29.294-3.906-1.302-5.86-2.604-5.86-3.905 1.303-1.302 5.21-7.81 11.72-19.53 1.3-2.603 2.93-7.81 4.882-15.623 1.953-7.812 2.93-16.926 2.93-27.342v-123.04c-5.21 1.302-10.092 4.23-14.65 8.79s-6.835 12.043-6.835 22.46v93.743c0 9.113-1.953 16.926-5.86 23.436-11.717 15.624-29.294 23.437-52.73 23.437-9.113 0-14.32-1.952-15.623-5.858-1.303-2.604-.977-4.883.977-6.836s4.882-4.232 8.788-6.836c3.906-2.604 6.51-4.558 7.812-5.86 5.208-3.905 9.113-9.113 11.718-15.623 3.906-5.208 4.882-18.88 2.93-41.013s-2.28-36.456-.978-42.966c-33.853 11.718-68.355 5.858-103.51-17.577-10.416-10.415-20.832-25.39-31.248-44.918-7.812-14.323-23.436-31.25-46.87-50.78z" fill="#000000"/></svg>
