<svg xmlns="http://www.w3.org/2000/svg" viewBox="0 0 792 500" version="1"><path fill="#E44F26" d="M75.38 467.27L48.3 163.65h297.46l-27.1 303.57L196.87 501"/><path fill="#F1662A" d="M197.04 475.18l98.42-27.3 23.16-259.4H197.04"/><path fill="#EBEBEB" d="M197.04 301.08h-49.28l-3.4-38.13h52.68V225.7H103.67l.9 10 9.15 102.62h83.34M197.04 397.8l-.16.03-41.48-11.2-2.65-29.7H115.37l5.22 58.47 76.27 21.18.17-.05"/><path fill="#010101" d="M76 81.14h18.9v18.7h17.32v-18.7h18.93v56.6h-18.93V118.8h-17.3v18.95H75.98V81.13zM156.03 99.9h-16.66V81.14h52.25v18.78h-16.66v37.85h-18.93V99.9zM199.92 81.14h19.73l12.14 19.9 12.1-19.9h19.75v56.6H244.8V109.7l-13 20.12h-.34l-13.03-20.13v28.05h-18.5v-56.6zM273.07 81.14H292v37.9h26.6v18.7h-45.53v-56.6z"/><path fill="#FFF" d="M196.9 301.08v37.24h45.86l-4.32 48.3-41.53 11.2v38.74l76.35-21.16.56-6.3 8.76-98.02.9-10h-10.03M196.9 225.7v37.26H286.87l.74-8.38 1.7-18.88.9-10"/><g><path fill="#131313" d="M685.16 96.68h-24.68l25.67 27.86v13.26h-52.88v-15.53h25.67L633.27 94.4V81.14h51.9v15.55zm-62.37 0h-24.7l25.67 27.86v13.26H570.9v-15.53h25.66L570.9 94.4V81.14h51.9v15.55zM561 97.3h-26.64v24.32h26.64v16.18h-45.58V81.13h45.58v16.18z"/></g><path fill="#1572B6" d="M479.14 467.3l-27.07-303.63h297.45l-27.1 303.57L600.63 501"/><path fill="#33A9DC" d="M600.8 475.2l98.43-27.3 23.15-259.4H600.8"/><g><path fill="#FFF" d="M600.8 298.5h49.27l3.4-38.14H600.8v-37.24H694.17l-.9 10-9.14 102.6H600.8"/><path fill="#EBEBEB" d="M601.02 395.2l-.16.05-41.48-11.2-2.65-29.7H519.35l5.22 58.47L600.85 434l.17-.05"/><path fill="#FFF" d="M646.9 334.16l-4.48 49.87-41.53 11.2V434l76.33-21.16.56-6.3 6.47-72.36"/><path fill="#EBEBEB" d="M600.93 223.13v37.24h-89.95l-.75-8.38-1.7-18.88-.88-10M600.8 298.5v37.25H559.85l-.75-8.38-1.7-18.88-.88-10"/></g></svg>
