<svg version="1" fill="#808080" xmlns="http://www.w3.org/2000/svg" width="626pt" height="1280pt" viewBox="0 0 626 1280">
  <path  d="M89.3 12.5C48.2 20 16.2 51.1 7.9 91.7 6 100.6 6 115.3 6.2 643.2l.3 542.3 2.3 8c2.7 9.9 9.9 24.9 15.6 32.9 2.4 3.4 8.1 9.7 12.7 14.1 16.7 16 35.6 24.9 58.7 27.5 6.8.8 73.4 1 224.2.8l214.5-.3 10-2.8c38-10.4 65.3-38.5 74.1-76.2 1.8-7.8 1.9-24.4 1.9-550v-542l-2.3-8.9c-4.6-18.3-12.7-33-25.6-46.4C579.4 28.5 564 19.4 545 14.1l-9.5-2.6-219.5-.2c-177-.1-220.9.1-226.7 1.2z"/>
</svg>
