<svg xmlns="http://www.w3.org/2000/svg" xmlns:xlink="http://www.w3.org/1999/xlink" version="1" viewBox="0 0 210 275"><defs><linearGradient id="e"><stop offset="0" stop-color="#0f4808"/><stop offset="1" stop-color="#2d5a30"/></linearGradient><linearGradient id="d"><stop offset="0" stop-color="#dbd8d6"/><stop offset="1" stop-color="#7a716a" stop-opacity="0"/></linearGradient><linearGradient id="c"><stop offset="0" stop-color="#367bd1"/><stop offset="1" stop-color="#39add4"/></linearGradient><linearGradient id="b"><stop offset="0" stop-color="#5ad95b"/><stop offset="1" stop-color="#266c1d"/></linearGradient><linearGradient id="a"><stop offset="0" stop-color="#ffb69d"/><stop offset="1" stop-color="#de8b6f"/></linearGradient><linearGradient xlink:href="#a" id="f" gradientUnits="userSpaceOnUse" x1="382.33" y1="815.92" x2="380.88" y2="938.17" gradientTransform="translate(-316.134 -700.566)"/><linearGradient xlink:href="#b" id="j" x1="471.25" y1="951.61" x2="496.5" y2="970.61" gradientUnits="userSpaceOnUse" gradientTransform="translate(-296.053 -752.154)"/><linearGradient xlink:href="#b" id="l" gradientUnits="userSpaceOnUse" x1="471.25" y1="951.61" x2="496.5" y2="970.61" gradientTransform="translate(-341.09 -717.308)"/><linearGradient xlink:href="#c" id="i" x1="131.75" y1="235.5" x2="125.25" y2="251.88" gradientUnits="userSpaceOnUse" gradientTransform="matrix(.76408 -.15413 0 .8667 80.898 -11.117)"/><linearGradient xlink:href="#c" id="k" x1="131.75" y1="235.5" x2="125.25" y2="251.88" gradientUnits="userSpaceOnUse" gradientTransform="matrix(.76408 -.15413 0 .8667 35.523 26.068)"/><linearGradient xlink:href="#d" id="m" x1="192.51" y1="69.84" x2="207.18" y2="69.07" gradientUnits="userSpaceOnUse" gradientTransform="matrix(1.27636 0 0 1.08478 -138.156 -152.48)"/><linearGradient xlink:href="#d" id="n" x1="200.75" y1="76.88" x2="203.38" y2="85.38" gradientUnits="userSpaceOnUse" gradientTransform="translate(-96.343 -10.076)"/><linearGradient xlink:href="#d" id="o" x1="197.75" y1="85.75" x2="197.25" y2="102.13" gradientUnits="userSpaceOnUse" gradientTransform="translate(-91.468 -14.45)"/><linearGradient xlink:href="#b" id="g" x1="11.18" y1="139.94" x2="121.96" y2="139.94" gradientUnits="userSpaceOnUse"/><linearGradient xlink:href="#e" id="h" x1="121.21" y1="64.8" x2="189.42" y2="144" gradientUnits="userSpaceOnUse"/></defs><path d="M17.17 226.87l100 44.96c44.66-38.7 77.75-66.82 77.75-66.82 1.42-28.98 1.86-72.7 1.86-72.7-22.5-47.28-25.13-50.95-50.4-102.5L6.66 137.92l12.02 6.72z" fill="none" stroke="#000" stroke-width="5" stroke-linecap="round" stroke-linejoin="bevel"/><path d="M19.7 225.26l97.05 43.65v-75.97l-9.38-6.13-35-75-50.5 37.5-.75.3-1.42 75.66z" fill="url(#f)" fill-rule="evenodd"/><path d="M21.16 144.63l-.05 5.14.67-.43 50.6-37.54-2.03-4.3-49.18 37.13z" fill="#2b1e1e" fill-rule="evenodd"/><path d="M11.18 137.55l8.75 4.9 1.25 2.22 49.16-37.16 37.03 79.3 14.68 5.08-47.5-103.83z" fill="url(#g)" fill-rule="evenodd"/><path d="M194.68 137.13c.1 24.45-.7 41.3-.97 66.03l-77 65.88.07-76.7 6.5.9z" fill="#b67b67" fill-rule="evenodd"/><path d="M127.23 196.05l42.88-32.44-.1-8.55" fill="none" stroke="#803300" stroke-linecap="round"/><path d="M116.72 189.82l.05 2.57 6.54.83s58.74-43.95 71.58-55.26c0-1-.48-.6-.6-2.43l-72.38 56.1z" fill="#271d1d" fill-rule="evenodd"/><path d="M121.9 191.64L74.55 88.04l71.28-55.35 50.67 103.25z" fill="url(#h)" fill-rule="evenodd"/><path d="M107.37 186.8l9.38 6.2-.03-3.18-9.35-3z" fill="#7c5041" fill-rule="evenodd"/><path d="M117.7 214.1l25.27-20.7" fill="none" stroke="#a40" stroke-linecap="round"/><path d="M78.3 250.93c-52.2 32.7-26.1 16.36 0 0z" fill="#00a7e5" fill-rule="evenodd"/><path d="M21.62 149.93l-1.46 75.13 96.55 43.5.12-75.18" fill="none" stroke="#d45500" stroke-width=".99" stroke-linecap="round" stroke-linejoin="round"/><path d="M162.32 188.13l16.46-14.04-.1-8.57" fill="none" stroke="#2b1100" stroke-linecap="round"/><path d="M153.2 205.28l40.7-34.8-.12-8.57" fill="none" stroke="#a40" stroke-linecap="round"/><path d="M186.4 187.58l-15.5 15 .1-24.2 7.82-6.84 7.77-6.8z" fill="url(#i)" fill-rule="evenodd" stroke="#803300" stroke-width=".73"/><path d="M165.72 209.13l5.85-4.94M165.98 218.6l5.86-4.95" fill="none" stroke="#2b1100" stroke-linecap="round"/><circle cx="188.45" cy="210.96" r="17" fill="url(#j)" stroke="#1e3919" stroke-width="4" stroke-linecap="round" stroke-linejoin="round"/><path d="M117.73 225.76l42.9-36.6-.12-8.54" fill="none" stroke="#a40" stroke-linecap="round"/><path d="M118.12 236.13l34.05-30.04.07-7.95" fill="none" stroke="#520" stroke-linecap="round"/><path d="M141.02 224.77l-15.5 15 .1-24.2 7.82-6.85 7.78-6.8z" fill="url(#k)" fill-rule="evenodd" stroke="#803300" stroke-width=".73"/><path d="M20.86 224.43l27.22 12.2v-8.67" fill="none" stroke="#803300" stroke-linecap="round"/><path d="M49.06 236.93l51.35 23.25v-9.1" fill="none" stroke="#a40" stroke-linecap="round"/><path d="M101.2 260.58l14.85 6.72M21.22 215.2l14.85 6.7V211.5" fill="none" stroke="#520" stroke-linecap="round"/><path d="M37.04 222.17l27.22 12.2v-8.66" fill="none" stroke="#803300" stroke-linecap="round"/><path d="M64.13 234.28l51.35 23.25" fill="none" stroke="#a40" stroke-linecap="round"/><path d="M21.66 203.88l27.22 12.2v-8.67" fill="none" stroke="#d45500" stroke-linecap="round"/><path d="M49.54 217.44l51.36 23.25v-9.12" fill="none" stroke="#520" stroke-linecap="round"/><path d="M102.05 241.3l13.92 6.42" fill="none" stroke="#d45500" stroke-linecap="round"/><path d="M21.66 193.7l14.85 6.73V190" fill="none" stroke="#520" stroke-linecap="round"/><path d="M37.48 200.78l27.22 12.2v-8.66" fill="none" stroke="#803300" stroke-linecap="round"/><path d="M64.22 213.02l51.35 23.25" fill="none" stroke="#a40" stroke-linecap="round"/><path d="M22.1 181.87l27.22 12.2v-8.67" fill="none" stroke="#803300" stroke-linecap="round"/><path d="M48.66 195.7L100 218.94v-9.1" fill="none" stroke="#a40" stroke-linecap="round"/><path d="M101.12 219.34l14.32 6.4M22.37 172.06l14.84 6.7v-10.42" fill="none" stroke="#520" stroke-linecap="round"/><path d="M38.72 179.04l27.22 12.2v-8.67" fill="none" stroke="#803300" stroke-linecap="round"/><path d="M64.13 190.75L115.48 214M22.76 160.34l51.36 23.25v-9.1" fill="none" stroke="#a40" stroke-linecap="round"/><path d="M75.84 184.87l14.85 6.72v-10.44" fill="none" stroke="#520" stroke-linecap="round"/><path d="M91.75 192.08l23.87 11.1" fill="none" stroke="#803300" stroke-linecap="round"/><path d="M22.5 149.74l51.35 23.24v-9.1M74.65 173.34l41.8 18.65" fill="none" stroke="#a40" stroke-linecap="round"/><path d="M31.03 143.15l14.85 6.72v-10.43" fill="none" stroke="#520" stroke-linecap="round"/><path d="M47.3 150.5l27.2 12.2V154" fill="none" stroke="#803300" stroke-linecap="round"/><path d="M75.93 163.04l14.85 6.72v-10.43" fill="none" stroke="#520" stroke-linecap="round"/><path d="M91.93 170.38l9.37 4.68" fill="none" stroke="#d45500" stroke-linecap="round"/><path d="M41.63 135.3l27.23 12.18v-8.66M70 147.75l23.34 10.6" fill="none" stroke="#803300" stroke-linecap="round"/><path d="M50.16 128.88l38.2 17.6" fill="none" stroke="#a40" stroke-linecap="round"/><path d="M59.22 122.3l14.85 6.7V118.6" fill="none" stroke="#520" stroke-linecap="round"/><path d="M75.22 129.9l6.45 3.18" fill="none" stroke="#d45500" stroke-linecap="round"/><path d="M69.12 115.22l4.95 2.4" fill="none" stroke="#520" stroke-linecap="round"/><path d="M118.12 247.88l42.9-36.58-.12-8.56" fill="none" stroke="#a40" stroke-linecap="round"/><path d="M118.3 257.6l42.9-36.58-.12-8.55" fill="none" stroke="#2b1100" stroke-linecap="round"/><path d="M117.86 266.8l42.9-36.58-.12-8.56" fill="none" stroke="#a40" stroke-linecap="round"/><path d="M154.93 235.76v-.62l-.25-38.03 9.82-7.6.44 37.77z" fill="#2b1100" fill-rule="evenodd" stroke="#520" stroke-width="1.3" stroke-linecap="round" stroke-linejoin="round"/><circle cx="143.41" cy="245.8" r="17" fill="url(#l)" stroke="#1e3919" stroke-width="4" stroke-linecap="round" stroke-linejoin="round"/><path d="M162.88 215.03a.4.72 0 0 1-.36.72.4.72 0 0 1-.45-.55.4.72 0 0 1 .26-.84.4.72 0 0 1 .5.34l-.36.33z" fill="#520" stroke="#520" stroke-linecap="round" stroke-linejoin="round"/><path d="M103.56 136.8l15.4-15.17-.14-38.8-15.24 12.4z" fill="#d66161" fill-rule="evenodd"/><path d="M103.58 137.06l-9.94-20.3-.2-28.74 10.23 7.1z" fill="#b22e2e" fill-rule="evenodd"/><path d="M93.48 88.2l10.18 7.1 15.2-12.54-9.74-6.87z" fill="#8f2525" fill-rule="evenodd"/><rect width="12.41" height="5.28" x="-38.81" y="145.31" ry="2.25" rx="1.25" transform="matrix(.80313 -.5958 .89634 .44337 0 0)" fill="#2b1100" stroke="#520" stroke-width="1.22" stroke-linecap="round" stroke-linejoin="round"/><path d="M118.04 202.6l7.87-6.02" fill="none" stroke="#2b1100" stroke-linecap="round"/><path d="M144.1 192.66l42.9-34.5.07-5.92" fill="none" stroke="#803300" stroke-linecap="round"/><path d="M188.26 157.24l5.85-4.94" fill="none" stroke="#2b1100" stroke-linecap="round"/><path d="M166.2 225.43l5.42-4.58" fill="none" stroke="#a40" stroke-linecap="round"/><path d="M187.73 163.7l5.85-4.94" fill="none" stroke="#803300" stroke-linecap="round"/><path d="M183.3 192.17l10.18-10.06" fill="none" stroke="#d45500" stroke-width=".99" stroke-linecap="round"/><ellipse cx="115.45" cy="-76.72" rx="7.9" ry="9.78" transform="matrix(.36694 .93024 -.81447 .5802 0 0)" fill="url(#m)"/><ellipse cx="106.47" cy="70.92" rx="4.44" ry="7.63" fill="url(#n)"/><ellipse cx="106.59" cy="80.36" rx="3.94" ry="9.81" fill="url(#o)"/><path d="M171.55 162.82l21.94-17.14" fill="none" stroke="#2b1100" stroke-linecap="round"/></svg>
